<svg xmlns="http://www.w3.org/2000/svg" width="286" height="103" viewBox="0 0 286 103" fill="none"><g clip-path="url(#clip0)"><path d="M18.6592 56.8564C23.2613 57.6127 28.6225 56.6036 30.9698 55.5986C31.7699 57.0372 32.9661 59.4501 30.0321 61.0696C28.0132 62.1774 24.9027 62.7919 19.3096 62.7919C7.94892 62.7919 0.0639808 57.4092 0.000376003 44.3297C-0.0632288 30.9562 7.94892 26.188 19.3137 26.188C23.7578 26.188 26.7883 26.6175 29.3263 27.5856C32.2624 28.6995 32.0408 31.5768 30.9677 33.3814C28.6164 32.3681 23.2551 31.359 18.6571 32.1194C11.8493 33.2416 9.68267 37.1733 9.68267 43.7953C9.68267 50.8489 11.8493 55.7301 18.6571 56.8564" fill="#003A5D"></path><path fill-rule="evenodd" clip-rule="evenodd" d="M50.1612 58.1635C53.9098 58.1635 55.2065 56.0158 55.2065 54.3058V49.5048C55.2065 49.5048 50.8609 50.0206 47.8612 50.7091C45.161 51.3257 44.326 52.1663 44.326 54.2914C44.326 56.7577 45.9017 58.1553 50.1612 58.1553V58.1635ZM50.8465 35.1242C57.9559 35.1242 63.471 37.4672 63.471 44.0049V54.5463C63.471 59.1973 58.9674 62.794 50.5141 62.794C41.95 62.794 36.4082 60.0461 36.4082 53.8084C36.4082 48.3518 40.4235 47.0261 51.4169 45.3819L55.2065 44.8209C55.2065 41.4338 54.7674 39.9211 49.2564 39.9211C44.3506 39.9211 39.2868 41.5653 39.2868 41.5653C38.4661 39.7362 38.7185 37.5288 39.9926 36.8136C41.4145 36.0223 44.4327 35.1139 50.8444 35.1139" fill="#003A5D"></path><path fill-rule="evenodd" clip-rule="evenodd" d="M85.7088 35.8332C87.2127 36.3984 87.8714 37.9728 87.3174 40.3157C85.9107 40.137 84.4943 40.0451 83.0764 40.0403C78.9892 40.0403 78.0947 41.2612 78.0885 44.4879V57.0475C78.0885 60.0379 75.9526 62.4343 72.5118 62.4343C70.3923 62.4343 69.666 62.1918 69.666 62.1918V44.0625C69.666 37.9645 73.4372 35.1406 79.6294 35.1406C82.7994 35.1406 84.5147 35.3811 85.717 35.8332" fill="#003A5D"></path><path fill-rule="evenodd" clip-rule="evenodd" d="M120.109 35.1241C120.903 35.1195 121.686 35.3138 122.386 35.6893L113.195 58.1635C112.115 60.7962 110.033 62.4795 107.125 62.4795C103.615 62.4795 101.393 60.9093 100.283 58.1635L91.3535 36.1456C91.3535 36.1456 93.0052 35.118 95.7648 35.118C98.982 35.118 100.824 36.7087 101.543 38.6407L107.973 55.9726L114.184 39.2161C115.255 36.2977 117.044 35.118 120.109 35.118" fill="#003A5D"></path><path fill-rule="evenodd" clip-rule="evenodd" d="M150.488 71.9686C148.982 71.4014 148.323 69.8229 148.879 67.48C150.286 67.6587 151.702 67.7506 153.12 67.7554C157.207 67.7554 158.106 66.5345 158.106 63.314V40.5213C158.106 37.5247 160.242 35.1242 163.685 35.1242C165.802 35.1242 166.53 35.3667 166.53 35.3667V63.7291C166.53 69.8229 162.763 72.6448 156.567 72.6448C153.397 72.6448 151.68 72.4064 150.48 71.9583" fill="#003A5D"></path><path fill-rule="evenodd" clip-rule="evenodd" d="M185.48 58.1635C189.732 58.1635 190.792 56.0158 190.792 54.3058V49.513C190.792 49.513 186.006 50.0289 183.01 50.7174C180.31 51.334 179.475 52.1746 179.475 54.2997C179.475 56.8831 181.213 58.1635 185.476 58.1635H185.48ZM185.991 35.1324C193.105 35.1324 198.62 37.4754 198.62 44.0132V54.721C198.62 59.3679 194.106 62.8022 185.663 62.8022C177.099 62.8022 171.711 60.0544 171.711 53.8167C171.711 48.36 175.533 46.872 186.558 45.3902L190.776 44.8291C190.694 41.4585 189.908 39.9294 184.399 39.9294C179.493 39.9294 174.43 41.5736 174.43 41.5736C173.599 39.7444 173.861 37.5371 175.139 36.8219C176.557 36.0306 179.575 35.1222 185.983 35.1222" fill="#003A5D"></path><path fill-rule="evenodd" clip-rule="evenodd" d="M220.713 61.7704C219.511 62.2185 217.795 62.4631 214.625 62.4631C208.433 62.4631 204.662 59.6453 204.662 53.5412V25.1788C204.662 25.1788 205.388 24.9363 207.508 24.9363C210.949 24.9363 213.089 27.3368 213.089 30.3272V53.1199C213.089 56.3466 213.983 57.5675 218.077 57.5675C219.495 57.5626 220.911 57.4693 222.318 57.288C222.872 59.635 222.213 61.2135 220.709 61.7746" fill="#003A5D"></path><path fill-rule="evenodd" clip-rule="evenodd" d="M138.119 58.1635C141.861 58.1635 143.154 56.0158 143.154 54.3058V49.5048C143.154 49.5048 138.808 50.0206 135.814 50.7091C133.114 51.3257 132.277 52.1663 132.277 54.2914C132.277 56.7577 133.855 58.1553 138.119 58.1553V58.1635ZM138.8 35.1242C145.909 35.1242 151.418 37.4672 151.418 44.0049V54.3819C151.418 59.0329 146.917 62.794 138.465 62.794C129.901 62.794 124.359 60.0461 124.359 53.8084C124.359 48.3518 128.375 47.0261 139.372 45.3819L143.154 44.8209C143.154 41.4338 142.721 39.9211 137.203 39.9211C132.3 39.9211 127.236 41.5653 127.236 41.5653C126.415 39.7362 126.666 37.5288 127.946 36.8136C129.368 36.0223 132.38 35.1139 138.794 35.1139" fill="#003A5D"></path><path d="M261.558 24.8562H255.145V31.1946H261.558V24.8562Z" fill="#00642F"></path><path d="M241.396 41.6229C241.396 42.4967 241.742 43.3351 242.357 43.9547C242.972 44.5743 243.807 44.9249 244.679 44.9298H255.143V31.1945H241.396V41.6229Z" fill="#00B5E5"></path><path d="M267.83 4.77228V18.4767H281.503V8.06684C281.503 7.1947 281.157 6.35829 280.542 5.74159C279.926 5.1249 279.091 4.77844 278.22 4.77844L267.83 4.77228Z" fill="#62358C"></path><path d="M261.553 31.1945H255.139V44.9298H261.553V31.1945Z" fill="#188D40"></path><path d="M236.551 31.1946H241.398V24.8562H255.144V18.4849H261.554V4.7723H267.833V1.60581e-05H239.834C239.402 -0.00133614 238.974 0.0827228 238.575 0.247375C238.175 0.412026 237.812 0.654034 237.506 0.959524C237.2 1.26501 236.957 1.62798 236.792 2.02762C236.626 2.42726 236.541 2.85571 236.541 3.28841L236.551 31.1946Z" fill="#ED7004"></path><path d="M267.829 4.77228H261.555V18.4767H267.829V4.77228Z" fill="#611A64"></path><path d="M281.513 18.4808H267.832V24.8562H281.513V18.4808Z" fill="#611A64"></path><path d="M261.553 18.4767H255.139V24.8521H261.553V18.4767Z" fill="#D7510C"></path><path d="M267.829 18.4808H261.555V24.8562H267.829V18.4808Z" fill="#3D195B"></path><path d="M267.829 24.8562H261.555V31.1946H267.829V24.8562Z" fill="#D7510C"></path><path d="M255.139 24.8562H241.396V31.1946H255.139V24.8562Z" fill="#188D40"></path><path d="M282.706 49.4513C283.139 49.4527 283.568 49.3683 283.968 49.203C284.368 49.0377 284.732 48.7948 285.038 48.4882C285.344 48.1816 285.587 47.8174 285.752 47.4166C285.917 47.0158 286.001 46.5862 285.999 46.1527V18.4788H281.502V24.85H267.821V31.1884H261.544V44.9277H255.135V49.4205L282.706 49.4513Z" fill="#80A41B"></path><g opacity="0.75"><path opacity="0.75" d="M277.455 30.5533C274.855 27.9494 271.156 27.8815 268.477 30.5533L261.558 37.5412L248.771 24.8315L261.554 12.0746L268.799 19.3934C271.285 21.8905 275.243 21.1896 277.168 19.3934C279.271 17.4224 279.876 16.6969 279.876 16.6969L268.743 5.54921C266.812 3.62834 264.201 2.55035 261.479 2.55035C258.757 2.55035 256.146 3.62834 254.215 5.54921L242.183 17.593C241.235 18.5411 240.482 19.6674 239.969 20.9072C239.456 22.1469 239.191 23.476 239.191 24.8182C239.191 26.1604 239.456 27.4894 239.969 28.7292C240.482 29.969 241.235 31.0952 242.183 32.0434L254.289 44.1591C255.238 45.1165 256.368 45.8742 257.614 46.3878C258.859 46.9013 260.195 47.1603 261.542 47.1495C262.891 47.1549 264.228 46.8935 265.477 46.3803C266.725 45.8672 267.86 45.1124 268.817 44.1591L279.938 33.0155L277.455 30.5533Z" fill="white"></path></g><path d="M79.0171 95.9061H72.4473V101.856H69.9277V87.6378H72.4473V93.5878H79.0171V87.6378H81.5305V101.856H79.0171V95.9061Z" fill="#ED7004"></path><path d="M97.0077 101.862H94.3302L93.2161 98.5512H87.3542L86.2401 101.862H83.5625L88.6529 87.6378H91.9194L97.0077 101.862ZM88.1051 96.313H92.4446L90.2779 89.8534L88.1051 96.313Z" fill="#ED7004"></path><path d="M104.776 99.7864C105.346 99.7942 105.912 99.6974 106.447 99.5007C106.934 99.3247 107.39 99.0707 107.797 98.7485L109.118 100.724C107.859 101.643 106.335 102.127 104.776 102.103C103.78 102.111 102.791 101.929 101.863 101.566C100.992 101.22 100.197 100.708 99.5219 100.058C98.8512 99.4012 98.3237 98.6125 97.9728 97.7414C97.5913 96.79 97.4023 95.7721 97.4168 94.7469C97.4069 93.7421 97.5959 92.7453 97.9728 91.8141C98.327 90.94 98.85 90.1445 99.5116 89.4732C100.17 88.8102 100.957 88.2898 101.824 87.9441C102.745 87.5723 103.73 87.3851 104.723 87.3933C106.287 87.3247 107.824 87.8133 109.063 88.7723L107.749 90.7474C107.361 90.4263 106.922 90.1721 106.451 89.9952C105.898 89.7922 105.312 89.6953 104.723 89.7095C104.077 89.7049 103.435 89.8213 102.831 90.0527C102.255 90.2703 101.734 90.6153 101.309 91.0619C100.869 91.5195 100.527 92.0622 100.304 92.6567C99.8172 94.0083 99.8172 95.4876 100.304 96.8392C100.529 97.4346 100.874 97.9773 101.317 98.434C101.753 98.8777 102.279 99.2219 102.86 99.4432C103.476 99.6759 104.129 99.7923 104.787 99.7864" fill="#ED7004"></path><path d="M111.754 87.6358H121.449V89.9541H114.267V93.5857H120.392V95.9041H114.267V99.5439H121.592V101.86H111.754V87.6358Z" fill="#ED7004"></path><path d="M129.096 87.6358H131.607V99.5439H137.656V101.86H129.096V87.6358Z" fill="#ED7004"></path><path d="M152.318 101.862H149.65L148.536 98.5512H142.664L141.552 101.862H138.885L143.975 87.6378H147.237L152.318 101.862ZM143.415 96.313H147.755L145.586 89.8554L143.415 96.313Z" fill="#ED7004"></path><path d="M161.486 90.7865C161.161 90.4362 160.768 90.1564 160.33 89.9644C159.862 89.7709 159.358 89.6778 158.851 89.691C158.16 89.691 157.62 89.8637 157.259 90.2131C157.08 90.3787 156.938 90.5805 156.842 90.805C156.746 91.0296 156.699 91.2719 156.703 91.5161C156.7 91.7446 156.736 91.9719 156.81 92.1882C156.894 92.3996 157.023 92.5898 157.189 92.7451C157.401 92.9435 157.645 93.1053 157.909 93.224C158.287 93.4029 158.676 93.5581 159.073 93.6885C159.787 93.9316 160.486 94.2185 161.166 94.5476C161.67 94.7882 162.136 95.1011 162.55 95.4765C162.891 95.7918 163.159 96.1775 163.336 96.6069C163.502 97.0583 163.584 97.536 163.578 98.0168C163.578 98.5282 163.501 99.0366 163.351 99.5254C163.201 100.015 162.934 100.46 162.571 100.82C162.141 101.237 161.624 101.554 161.059 101.749C160.28 102.006 159.463 102.124 158.644 102.099C157.672 102.123 156.707 101.941 155.81 101.564C155.042 101.228 154.341 100.755 153.74 100.169L155.24 98.3025C155.669 98.7982 156.203 99.1915 156.804 99.4535C157.392 99.705 158.027 99.8317 158.667 99.8255C159.559 99.8255 160.181 99.6672 160.53 99.3466C160.779 99.0838 160.95 98.756 161.023 98.4006C161.095 98.0451 161.067 97.6764 160.94 97.3365C160.849 97.123 160.708 96.9342 160.53 96.7857C160.271 96.5901 159.991 96.4246 159.694 96.2925C159.346 96.1281 158.888 95.9575 158.338 95.7643C156.931 95.3067 155.888 94.7435 155.211 94.0749C154.54 93.411 154.198 92.5375 154.198 91.4585C154.193 90.9037 154.3 90.3537 154.512 89.8411C154.72 89.3516 155.032 88.9128 155.425 88.5545C155.851 88.1707 156.352 87.8789 156.896 87.6974C157.543 87.486 158.221 87.3839 158.902 87.3953C159.71 87.3742 160.513 87.5255 161.258 87.8393C161.884 88.1159 162.46 88.4929 162.965 88.9553L161.486 90.7865Z" fill="#ED7004"></path><path d="M177.429 99.7864C177.998 99.7942 178.564 99.6974 179.099 99.5007C179.586 99.3243 180.042 99.0703 180.449 98.7485L181.768 100.724C180.509 101.643 178.986 102.127 177.429 102.103C176.432 102.111 175.444 101.929 174.515 101.566C173.644 101.221 172.849 100.708 172.174 100.058C171.503 99.4017 170.975 98.6129 170.625 97.7414C170.243 96.7901 170.053 95.7722 170.067 94.7469C170.058 93.742 170.248 92.7451 170.625 91.8141C170.974 90.9419 171.49 90.1466 172.144 89.4731C172.803 88.8106 173.59 88.2902 174.458 87.944C175.381 87.5718 176.368 87.3847 177.363 87.3932C178.199 87.3724 179.031 87.4954 179.825 87.757C180.495 88.0032 181.125 88.3452 181.697 88.7723L180.383 90.7474C179.994 90.4266 179.555 90.1725 179.083 89.9952C178.532 89.7925 177.949 89.6955 177.363 89.7095C176.714 89.7043 176.07 89.8207 175.463 90.0527C174.888 90.2711 174.368 90.6159 173.943 91.0618C173.502 91.519 173.16 92.0618 172.938 92.6567C172.451 94.0083 172.451 95.4876 172.938 96.8391C173.163 97.4345 173.508 97.9773 173.951 98.434C174.386 98.8777 174.912 99.2219 175.492 99.4431C176.108 99.6758 176.762 99.7922 177.421 99.7864" fill="#ED7004"></path><path d="M183.089 94.7675C183.078 93.7511 183.268 92.7427 183.647 91.7997C183.997 90.9235 184.521 90.1277 185.187 89.4608C185.858 88.8073 186.649 88.2901 187.516 87.9379C189.391 87.2144 191.467 87.2144 193.341 87.9379C194.21 88.2896 195.003 88.8068 195.676 89.4608C196.337 90.1285 196.859 90.9215 197.211 91.7935C197.592 92.731 197.783 93.7348 197.775 94.7469C197.786 95.7733 197.595 96.7918 197.211 97.7435C196.865 98.6136 196.342 99.4023 195.676 100.06C195.01 100.717 194.215 101.229 193.341 101.562C192.413 101.927 191.424 102.111 190.428 102.105C189.433 102.112 188.445 101.933 187.516 101.577C186.649 101.242 185.857 100.737 185.187 100.091C184.521 99.4313 183.997 98.6423 183.647 97.7723C183.265 96.82 183.076 95.8016 183.089 94.7757V94.7675ZM185.602 94.7757C185.595 95.4656 185.711 96.1511 185.945 96.8001C186.162 97.3916 186.494 97.9338 186.923 98.395C187.351 98.8429 187.869 99.1933 188.444 99.4226C189.724 99.9152 191.143 99.9101 192.42 99.4082C192.994 99.1707 193.512 98.815 193.94 98.3642C194.365 97.9019 194.695 97.3608 194.913 96.7713C195.37 95.4605 195.37 94.0333 194.913 92.7225C194.696 92.1325 194.365 91.5907 193.94 91.1276C193.512 90.6774 192.994 90.3218 192.42 90.0836C191.787 89.8281 191.11 89.7016 190.428 89.7116C189.748 89.7008 189.073 89.8273 188.444 90.0836C187.868 90.3187 187.35 90.6748 186.923 91.1276C186.493 91.5928 186.16 92.1401 185.945 92.7369C185.712 93.3882 185.596 94.0757 185.602 94.7675" fill="#ED7004"></path><path d="M207.243 90.7864C206.918 90.4359 206.524 90.1561 206.086 89.9643C205.618 89.7707 205.115 89.6776 204.609 89.691C203.918 89.691 203.378 89.8636 203.017 90.213C202.838 90.3787 202.696 90.5804 202.6 90.805C202.504 91.0296 202.457 91.2719 202.461 91.5161C202.458 91.7445 202.494 91.9718 202.567 92.1881C202.651 92.3995 202.78 92.5897 202.945 92.7451C203.158 92.9431 203.402 93.1048 203.667 93.224C204.045 93.4032 204.433 93.5584 204.831 93.6885C205.544 93.9291 206.243 94.214 206.921 94.5414C207.426 94.7815 207.893 95.0945 208.306 95.4703C208.647 95.7856 208.915 96.1713 209.092 96.6007C209.26 97.0516 209.342 97.5296 209.336 98.0106C209.335 98.5221 209.257 99.0305 209.106 99.5192C208.959 100.009 208.691 100.454 208.329 100.814C207.898 101.231 207.381 101.548 206.815 101.743C206.037 102 205.22 102.118 204.402 102.092C203.496 102.121 202.595 101.965 201.751 101.633C200.908 101.301 200.142 100.801 199.498 100.162L200.996 98.2963C201.426 98.7911 201.96 99.1842 202.559 99.4473C203.149 99.6988 203.784 99.8255 204.424 99.8193C205.315 99.8193 205.936 99.661 206.287 99.3404C206.536 99.0767 206.706 98.7489 206.778 98.3939C206.851 98.0388 206.823 97.6705 206.698 97.3304C206.606 97.1172 206.465 96.9286 206.287 96.7795C206.028 96.5843 205.748 96.4189 205.452 96.2863C205.101 96.1219 204.644 95.9513 204.094 95.7581C202.689 95.3005 201.647 94.7373 200.967 94.0687C200.296 93.4048 199.954 92.5313 199.954 91.4523C199.949 90.8975 200.056 90.3475 200.267 89.8349C200.478 89.3457 200.79 88.9071 201.183 88.5483C201.609 88.1645 202.11 87.8727 202.654 87.6912C203.301 87.4799 203.978 87.3778 204.658 87.3891C205.467 87.368 206.27 87.5193 207.016 87.8331C207.641 88.1097 208.217 88.4867 208.721 88.9491L207.243 90.7864Z" fill="#ED7004"></path><path d="M223.792 101.862H221.124L220.01 98.5512H214.151L213.036 101.862H210.369L215.435 87.6378H218.697L223.792 101.862ZM214.889 96.313H219.231L217.06 89.8554L214.889 96.313Z" fill="#ED7004"></path><path d="M232.962 90.7865C232.636 90.4365 232.243 90.1568 231.805 89.9644C231.337 89.7707 230.834 89.6776 230.328 89.691C229.634 89.691 229.107 89.8636 228.736 90.213C228.555 90.3782 228.412 90.5797 228.315 90.8042C228.217 91.0288 228.169 91.2713 228.171 91.5161C228.171 91.7448 228.21 91.972 228.284 92.1881C228.369 92.3992 228.499 92.5892 228.664 92.7451C228.876 92.9431 229.119 93.1048 229.384 93.224C229.762 93.4029 230.15 93.558 230.547 93.6885C231.262 93.9308 231.961 94.2177 232.64 94.5476C233.144 94.7881 233.611 95.1011 234.025 95.4765C234.366 95.7918 234.634 96.1775 234.811 96.6069C234.977 97.0582 235.059 97.536 235.053 98.0168C235.052 98.5282 234.976 99.0366 234.825 99.5254C234.676 100.015 234.408 100.46 234.046 100.82C233.616 101.238 233.1 101.555 232.534 101.749C231.756 102.006 230.939 102.124 230.121 102.099C229.146 102.122 228.178 101.94 227.279 101.564C226.513 101.226 225.815 100.753 225.215 100.169L226.715 98.3025C227.144 98.7973 227.678 99.1903 228.278 99.4534C228.867 99.7048 229.501 99.8314 230.141 99.8254C231.034 99.8254 231.655 99.6672 232.004 99.3466C232.185 99.1779 232.326 98.9711 232.418 98.7412C232.509 98.5113 232.549 98.2639 232.534 98.0168C232.54 97.7842 232.498 97.5527 232.412 97.3365C232.317 97.1222 232.172 96.9336 231.99 96.7857C231.731 96.5901 231.451 96.4246 231.155 96.2925C230.806 96.128 230.348 95.9575 229.799 95.7643C228.394 95.3066 227.351 94.7435 226.672 94.0748C226.001 93.411 225.658 92.5375 225.658 91.4585C225.653 90.9037 225.76 90.3536 225.972 89.841C226.181 89.352 226.493 88.9134 226.885 88.5545C227.311 88.1706 227.812 87.8789 228.356 87.6974C229.004 87.4862 229.682 87.3841 230.363 87.3953C231.17 87.3739 231.973 87.5253 232.718 87.8392C233.344 88.1154 233.921 88.4924 234.425 88.9552L232.962 90.7865Z" fill="#ED7004"></path><path d="M242.152 87.6378H247.897C250.926 87.6378 252.439 88.871 252.438 91.3373C252.443 91.9298 252.316 92.516 252.066 93.0534C251.778 93.6239 251.319 94.0897 250.753 94.3852C251.479 94.5947 252.117 95.0338 252.573 95.6368C253.01 96.2233 253.228 97.0166 253.23 98.0168C253.246 98.6139 253.132 99.2072 252.895 99.7556C252.687 100.224 252.363 100.632 251.954 100.941C251.515 101.269 251.014 101.506 250.483 101.636C249.854 101.791 249.209 101.866 248.562 101.858H242.159L242.152 87.6378ZM244.666 89.9561V93.5878H248.059C248.525 93.5998 248.979 93.4429 249.338 93.1459C249.695 92.8458 249.865 92.3875 249.865 91.7586C249.865 91.179 249.715 90.731 249.422 90.4206C249.128 90.1103 248.667 89.9561 248.045 89.9561H244.666ZM244.666 95.9061V99.5233H248.685C249.192 99.5519 249.689 99.3799 250.07 99.0444C250.24 98.8736 250.372 98.669 250.458 98.4438C250.544 98.2187 250.581 97.978 250.569 97.7373C250.582 97.4917 250.546 97.246 250.462 97.0147C250.379 96.7834 250.249 96.5714 250.082 96.3911C249.754 96.0705 249.284 95.9061 248.663 95.9061H244.666Z" fill="#ED7004"></path><path d="M258.17 87.6358H255.656V101.86H258.17V87.6358Z" fill="#ED7004"></path><path d="M261.418 87.6358H271.113V89.9541H263.931V93.5857H270.056V95.9041H263.931V99.5439H271.256V101.86H261.418V87.6358Z" fill="#ED7004"></path><path d="M276.568 91.0495L276.611 92.408V101.856H274.092V87.6378H277.118L283.524 98.4443L283.487 97.1433V87.6378H286V101.856H282.98L276.568 91.0495Z" fill="#ED7004"></path></g><defs><clipPath id="clip0"><rect width="286" height="102.105" fill="white"></rect></clipPath></defs></svg>